<?xml version="1.0" encoding="utf-8" standalone="yes"?>
<!DOCTYPE svg PUBLIC "-//W3C//DTD SVG 1.1//EN" "http://www.w3.org/Graphics/SVG/1.1/DTD/svg11.dtd">
<svg width="782" height="974" viewBox="0 0 782 974" style="fill:none;stroke:none;fill-rule:evenodd;clip-rule:evenodd;stroke-linecap:round;stroke-linejoin:round;stroke-miterlimit:1.5;" version="1.1" xmlns="http://www.w3.org/2000/svg" xmlns:xlink="http://www.w3.org/1999/xlink"><style class="text-font-style fontImports" data-font-family="Roboto">@import url('https://fonts.googleapis.com/css2?family=Roboto:wght@400;700&amp;display=block');</style><g id="items" style="isolation: isolate"><g id="blend" style="mix-blend-mode: normal"><g id="g-root-ro_1q5q6k7zahc0b-fill" data-item-order="-19656" transform="translate(327, 456)"><g id="ro_1q5q6k7zahc0b-fill" stroke="none" fill="#f5f5f5"><g><path d="M 34 10L 142 10C 142 10 166 10 166 34L 166 112C 166 112 166 136 142 136L 34 136C 34 136 10 136 10 112L 10 34C 10 34 10 10 34 10"></path></g></g></g><g id="g-root-ro_74cs7zawq9t-fill" data-item-order="-11664" transform="translate(63, 549)"><g id="ro_74cs7zawq9t-fill" stroke="none" fill="#fff2e5"><g><path d="M 22 10L 214 10C 214 10 226 10 226 22L 226 52C 226 52 226 64 214 64L 22 64C 22 64 10 64 10 52L 10 22C 10 22 10 10 22 10"></path></g></g></g><g id="g-root-ro_i0w9mfzaip6z-fill" data-item-order="-11664" transform="translate(531, 309)"><g id="ro_i0w9mfzaip6z-fill" stroke="none" fill="#faf0ff"><g><path d="M 22 10L 214 10C 214 10 226 10 226 22L 226 52C 226 52 226 64 214 64L 22 64C 22 64 10 64 10 52L 10 22C 10 22 10 10 22 10"></path></g></g></g><g id="g-root-ro_i09sjbzamxag-fill" data-item-order="-10368" transform="translate(531, 531)"><g id="ro_i09sjbzamxag-fill" stroke="none" fill="#ffeceb"><g><path d="M 22 10L 190 10C 190 10 202 10 202 22L 202 52C 202 52 202 64 190 64L 22 64C 22 64 10 64 10 52L 10 22C 10 22 10 10 22 10"></path></g></g></g><g id="g-root-ro_1hhkvcnzaod1j-fill" data-item-order="-10368" transform="translate(455, 123)"><g id="ro_1hhkvcnzaod1j-fill" stroke="none" fill="#f4ffdc"><g><path d="M 22 10L 190 10C 190 10 202 10 202 22L 202 52C 202 52 202 64 190 64L 22 64C 22 64 10 64 10 52L 10 22C 10 22 10 10 22 10"></path></g></g></g><g id="g-root-ro_1hittivzawqof-fill" data-item-order="-9072" transform="translate(187, 141)"><g id="ro_1hittivzawqof-fill" stroke="none" fill="#f3f0ff"><g><path d="M 22 10L 166 10C 166 10 178 10 178 22L 178 52C 178 52 178 64 166 64L 22 64C 22 64 10 64 10 52L 10 22C 10 22 10 10 22 10"></path></g></g></g><g id="g-root-ro_24k3bzaskcl-fill" data-item-order="-9072" transform="translate(111, 327)"><g id="ro_24k3bzaskcl-fill" stroke="none" fill="#e8f9ff"><g><path d="M 22 10L 166 10C 166 10 178 10 178 22L 178 52C 178 52 178 64 166 64L 22 64C 22 64 10 64 10 52L 10 22C 10 22 10 10 22 10"></path></g></g></g><g id="g-root-ro_hyed9zzappty-fill" data-item-order="-7776" transform="translate(333, 753)"><g id="ro_hyed9zzappty-fill" stroke="none" fill="#ffebf7"><g><path d="M 22 10L 142 10C 142 10 154 10 154 22L 154 52C 154 52 154 64 142 64L 22 64C 22 64 10 64 10 52L 10 22C 10 22 10 10 22 10"></path></g></g></g><g id="g-root-tx_uvicorng_1q6cnnbzar5e0-fill" data-item-order="0" transform="translate(579, 705)"><g id="tx_uvicorng_1q6cnnbzar5e0-fill" stroke="none" fill="#484848"><g><text style="font: 20px Roboto, sans-serif; white-space: pre;" font-size="20px" font-family="Roboto, sans-serif"><tspan x="16.13" y="34" dominant-baseline="ideographic">Uvicorn/Gunicorn</tspan></text></g></g></g><g id="g-root-cu_qwj9vbzawrgh-fill" data-item-order="0" transform="translate(355, 168)"></g><g id="g-root-cu_18itho7zay4ni-fill" data-item-order="0" transform="translate(479, 177)"></g><g id="g-root-cu_142zzjrzay5ft-fill" data-item-order="0" transform="translate(479, 177)"></g><g id="g-root-cu_zn6hfbzay683-fill" data-item-order="0" transform="translate(479, 177)"></g><g id="g-root-tx_snowflak_zs6a47zaprt6-fill" data-item-order="0" transform="translate(211, 207)"><g id="tx_snowflak_zs6a47zaprt6-fill" stroke="none" fill="#484848"><g><text style="font: 20px Roboto, sans-serif; white-space: pre;" font-size="20px" font-family="Roboto, sans-serif"><tspan x="11.93" y="34" dominant-baseline="ideographic">Snowflake</tspan></text></g></g></g><g id="g-root-cu_v5hk1jzay77q-fill" data-item-order="0" transform="translate(313, 195)"></g><g id="g-root-cu_qqaj07zay4u9-fill" data-item-order="0" transform="translate(313, 195)"></g><g id="g-root-cu_hunirbzay5mz-fill" data-item-order="0" transform="translate(313, 195)"></g><g id="g-root-tx_streamli_1cvimd3zar3t5-fill" data-item-order="0" transform="translate(503, 189)"><g id="tx_streamli_1cvimd3zar3t5-fill" stroke="none" fill="#484848"><g><text style="font: 20px Roboto, sans-serif; white-space: pre;" font-size="20px" font-family="Roboto, sans-serif"><tspan x="11.84" y="34" dominant-baseline="ideographic">Streamlit</tspan></text></g></g></g><g id="g-root-tx_gradio_18fp48nzar4le-fill" data-item-order="0" transform="translate(503, 225)"><g id="tx_gradio_18fp48nzar4le-fill" stroke="none" fill="#484848"><g><text style="font: 20px Roboto, sans-serif; white-space: pre;" font-size="20px" font-family="Roboto, sans-serif"><tspan x="16.78" y="34" dominant-baseline="ideographic">Gradio</tspan></text></g></g></g><g id="g-root-tx_git_v2znp3zar403-fill" data-item-order="0" transform="translate(271, 243)"><g id="tx_git_v2znp3zar403-fill" stroke="none" fill="#484848"><g><text style="font: 20px Roboto, sans-serif; white-space: pre;" font-size="20px" font-family="Roboto, sans-serif"><tspan x="15.48" y="34" dominant-baseline="ideographic">Git</tspan></text></g></g></g><g id="g-root-tx_rich_v48lvbzar66b-fill" data-item-order="0" transform="translate(503, 261)"><g id="tx_rich_v48lvbzar66b-fill" stroke="none" fill="#484848"><g><text style="font: 20px Roboto, sans-serif; white-space: pre;" font-size="20px" font-family="Roboto, sans-serif"><tspan x="14.66" y="34" dominant-baseline="ideographic">Rich</tspan></text></g></g></g><g id="g-root-tx_dbt_hrj5brzar5l0-fill" data-item-order="0" transform="translate(271, 279)"><g id="tx_dbt_hrj5brzar5l0-fill" stroke="none" fill="#484848"><g><text style="font: 20px Roboto, sans-serif; white-space: pre;" font-size="20px" font-family="Roboto, sans-serif"><tspan x="13.47" y="34" dominant-baseline="ideographic">dbt</tspan></text></g></g></g><g id="g-root-cu_dbpn7bzay4g7-fill" data-item-order="0" transform="translate(431, 150)"></g><g id="g-root-cu_vccrzrzawqo3-fill" data-item-order="0" transform="translate(483, 336)"></g><g id="g-root-tx_pythonjo_4hy27rzar66d-fill" data-item-order="0" transform="translate(381, 855)"><g id="tx_pythonjo_4hy27rzar66d-fill" stroke="none" fill="#484848"><g><text style="font: 20px Roboto, sans-serif; white-space: pre;" font-size="20px" font-family="Roboto, sans-serif"><tspan x="17.55" y="34" dominant-baseline="ideographic">Python-jose</tspan></text></g></g></g><g id="g-root-cu_qrjh6fzay70t-fill" data-item-order="0" transform="translate(357, 807)"></g><g id="g-root-cu_18n6t9zzaws8w-fill" data-item-order="0" transform="translate(279, 354)"></g><g id="g-root-cu_m8llmfzay5ty-fill" data-item-order="0" transform="translate(555, 363)"></g><g id="g-root-cu_8xrkc7zay495-fill" data-item-order="0" transform="translate(555, 363)"></g><g id="g-root-cu_4hy27rzay51f-fill" data-item-order="0" transform="translate(555, 363)"></g><g id="g-root-cu_1unf3xzzay5n1-fill" data-item-order="0" transform="translate(555, 363)"></g><g id="g-root-tx_python39_92rd13zapqmn-fill" data-item-order="0" transform="translate(111, 393)"><g id="tx_python39_92rd13zapqmn-fill" stroke="none" fill="#484848"><g><text style="font: 20px Roboto, sans-serif; white-space: pre;" font-size="20px" font-family="Roboto, sans-serif"><tspan x="16.84" y="34" dominant-baseline="ideographic">Python 3.9+</tspan></text></g></g></g><g id="g-root-cu_94tzzay619-fill" data-item-order="0" transform="translate(237, 381)"></g><g id="g-root-cu_1cuw59zzay5ts-fill" data-item-order="0" transform="translate(237, 381)"></g><g id="g-root-cu_zk23zrzay48y-fill" data-item-order="0" transform="translate(237, 381)"></g><g id="g-root-cu_qof3qvzay51o-fill" data-item-order="0" transform="translate(237, 381)"></g><g id="g-root-tx_openaiap_zqxbxzzappmz-fill" data-item-order="0" transform="translate(579, 375)"><g id="tx_openaiap_zqxbxzzappmz-fill" stroke="none" fill="#484848"><g><text style="font: 20px Roboto, sans-serif; white-space: pre;" font-size="20px" font-family="Roboto, sans-serif"><tspan x="13.4" y="34" dominant-baseline="ideographic">OpenAI API</tspan></text></g></g></g><g id="g-root-tx_anthropi_vb3ttjzapqf8-fill" data-item-order="0" transform="translate(579, 411)"><g id="tx_anthropi_vb3ttjzapqf8-fill" stroke="none" fill="#484848"><g><text style="font: 20px Roboto, sans-serif; white-space: pre;" font-size="20px" font-family="Roboto, sans-serif"><tspan x="17.58" y="34" dominant-baseline="ideographic">Anthropic Claude</tspan></text></g></g></g><g id="g-root-tx_langchai_7qtvbzapp1c-fill" data-item-order="0" transform="translate(15, 429)"><g id="tx_langchai_7qtvbzapp1c-fill" stroke="none" fill="#484848"><g><text style="font: 20px Roboto, sans-serif; white-space: pre;" font-size="20px" font-family="Roboto, sans-serif"><tspan x="14.88" y="34" dominant-baseline="ideographic">LangChain/LlamaIndex</tspan></text></g></g></g><g id="g-root-tx_llama3_i09sjbzapoud-fill" data-item-order="0" transform="translate(579, 447)"><g id="tx_llama3_i09sjbzapoud-fill" stroke="none" fill="#484848"><g><text style="font: 20px Roboto, sans-serif; white-space: pre;" font-size="20px" font-family="Roboto, sans-serif"><tspan x="16.43" y="34" dominant-baseline="ideographic">Llama 3</tspan></text></g></g></g><g id="g-root-tx_fastapi_1qd7vljzappmx-fill" data-item-order="0" transform="translate(147, 465)"><g id="tx_fastapi_1qd7vljzappmx-fill" stroke="none" fill="#484848"><g><text style="font: 20px Roboto, sans-serif; white-space: pre;" font-size="20px" font-family="Roboto, sans-serif"><tspan x="17.21" y="34" dominant-baseline="ideographic">FastAPI</tspan></text></g></g></g><g id="g-root-cu_mccg53zay4nc-fill" data-item-order="0" transform="translate(357, 807)"></g><g id="g-root-cu_hwiy0nzay5fm-fill" data-item-order="0" transform="translate(357, 807)"></g><g id="g-root-tx_mistrala_94msafzappn2-fill" data-item-order="0" transform="translate(579, 483)"><g id="tx_mistrala_94msafzappn2-fill" stroke="none" fill="#484848"><g><text style="font: 20px Roboto, sans-serif; white-space: pre;" font-size="20px" font-family="Roboto, sans-serif"><tspan x="15.62" y="34" dominant-baseline="ideographic">Mistral AI</tspan></text></g></g></g><g id="g-root-tx_pydantic_1d1rd87zapr7u-fill" data-item-order="0" transform="translate(147, 501)"><g id="tx_pydantic_1d1rd87zapr7u-fill" stroke="none" fill="#484848"><g><text style="font: 20px Roboto, sans-serif; white-space: pre;" font-size="20px" font-family="Roboto, sans-serif"><tspan x="13.41" y="34" dominant-baseline="ideographic">Pydantic</tspan></text></g></g></g><g id="g-root-cu_vccrzrzawqo6-fill" data-item-order="0" transform="translate(279, 540)"></g><g id="g-root-cu_i0w9mfzaws98-fill" data-item-order="0" transform="translate(483, 540)"></g><g id="g-root-tx_pyjwt_1q882wnzar4ee-fill" data-item-order="0" transform="translate(381, 891)"><g id="tx_pyjwt_1q882wnzar4ee-fill" stroke="none" fill="#484848"><g><text style="font: 20px Roboto, sans-serif; white-space: pre;" font-size="20px" font-family="Roboto, sans-serif"><tspan x="14.46" y="34" dominant-baseline="ideographic">PyJWT</tspan></text></g></g></g><g id="g-root-tx_pythondo_htekl3zar4lg-fill" data-item-order="0" transform="translate(381, 819)"><g id="tx_pythondo_htekl3zar4lg-fill" stroke="none" fill="#484848"><g><text style="font: 20px Roboto, sans-serif; white-space: pre;" font-size="20px" font-family="Roboto, sans-serif"><tspan x="11.83" y="34" dominant-baseline="ideographic">Python-dotenv</tspan></text></g></g></g><g id="g-root-tx_comprehe_90vxrrzay68c-fill" data-item-order="0" transform="translate(75, 39)"><g id="tx_comprehe_90vxrrzay68c-fill" stroke="none" fill="#484848"><g><text style="font: 25px Roboto, sans-serif; white-space: pre;" font-size="25px" font-family="Roboto, sans-serif"><tspan x="17.37" y="43" dominant-baseline="ideographic">Comprehensive Tech Stack for Software Development</tspan></text></g></g></g><g id="g-root-cu_8vw52vzay58i-fill" data-item-order="0" transform="translate(405, 582)"></g><g id="g-root-cu_4j70dzzay77x-fill" data-item-order="0" transform="translate(555, 585)"></g><g id="g-root-cu_3zzcnzay4ug-fill" data-item-order="0" transform="translate(555, 585)"></g><g id="g-root-cu_1upaj7bzay5fm-fill" data-item-order="0" transform="translate(555, 585)"></g><g id="g-root-cu_1ltniyfzay68c-fill" data-item-order="0" transform="translate(555, 585)"></g><g id="g-root-tx_docker_8vw52vzar6dp-fill" data-item-order="0" transform="translate(579, 597)"><g id="tx_docker_8vw52vzar6dp-fill" stroke="none" fill="#484848"><g><text style="font: 20px Roboto, sans-serif; white-space: pre;" font-size="20px" font-family="Roboto, sans-serif"><tspan x="14.84" y="34" dominant-baseline="ideographic">Docker</tspan></text></g></g></g><g id="g-root-tx_vectorda_1qegtrrzaprt3-fill" data-item-order="0" transform="translate(75, 615)"><g id="tx_vectorda_1qegtrrzaprt3-fill" stroke="none" fill="#484848"><g><text style="font: 20px Roboto, sans-serif; white-space: pre;" font-size="20px" font-family="Roboto, sans-serif"><tspan x="14.33" y="34" dominant-baseline="ideographic">Vector Database</tspan></text></g></g></g><g id="g-root-cu_1hbylknzay77z-fill" data-item-order="0" transform="translate(237, 603)"></g><g id="g-root-cu_1cwrkjbzay4ui-fill" data-item-order="0" transform="translate(237, 603)"></g><g id="g-root-cu_zlb25zzay6fg-fill" data-item-order="0" transform="translate(237, 603)"></g><g id="g-root-tx_redis_4gp41jzar406-fill" data-item-order="0" transform="translate(579, 633)"><g id="tx_redis_4gp41jzar406-fill" stroke="none" fill="#484848"><g><text style="font: 20px Roboto, sans-serif; white-space: pre;" font-size="20px" font-family="Roboto, sans-serif"><tspan x="15.3" y="34" dominant-baseline="ideographic">Redis</tspan></text></g></g></g><g id="g-root-tx_embeddin_1lz9sqfzappfk-fill" data-item-order="0" transform="translate(111, 651)"><g id="tx_embeddin_1lz9sqfzappfk-fill" stroke="none" fill="#484848"><g><text style="font: 20px Roboto, sans-serif; white-space: pre;" font-size="20px" font-family="Roboto, sans-serif"><tspan x="14.62" y="34" dominant-baseline="ideographic">Embeddings</tspan></text></g></g></g><g id="g-root-tx_poetry_1um65rrzar4lr-fill" data-item-order="0" transform="translate(579, 669)"><g id="tx_poetry_1um65rrzar4lr-fill" stroke="none" fill="#484848"><g><text style="font: 20px Roboto, sans-serif; white-space: pre;" font-size="20px" font-family="Roboto, sans-serif"><tspan x="17.27" y="34" dominant-baseline="ideographic">Poetry</tspan></text></g></g></g><g id="g-root-tx_document_1d3mshjzapq89-fill" data-item-order="0" transform="translate(27, 687)"><g id="tx_document_1d3mshjzapq89-fill" stroke="none" fill="#484848"><g><text style="font: 20px Roboto, sans-serif; white-space: pre;" font-size="20px" font-family="Roboto, sans-serif"><tspan x="13.91" y="34" dominant-baseline="ideographic">Document Processing</tspan></text></g></g></g><g id="g-root-data_1qegtrrzawpvq-fill" data-item-order="1000000000" transform="translate(313, 153)"></g><g id="g-root-shap_1lxedh3zaoc9a-fill" data-item-order="1000000000" transform="translate(467, 135)"></g><g id="g-root-tx_connecto_940b7bzawqvh-fill" data-item-order="1000000000" transform="translate(199, 156)"><g id="tx_connecto_940b7bzawqvh-fill" stroke="none" fill="#7f64ea"><g><text style="font: 20px Roboto, sans-serif; white-space: pre;" font-size="20px" font-family="Roboto, sans-serif"><tspan x="12.77" y="34" dominant-baseline="ideographic">Connectors</tspan></text></g></g></g><g id="g-root-word_qwj9vbzaioea-fill" data-item-order="1000000000" transform="translate(543, 321)"></g><g id="g-root-tx_language_147db5jzaipz5-fill" data-item-order="1000000000" transform="translate(579, 324)"><g id="tx_language_147db5jzaipz5-fill" stroke="none" fill="#ba5de5"><g><text style="font: 20px Roboto, sans-serif; white-space: pre;" font-size="20px" font-family="Roboto, sans-serif"><tspan x="13.88" y="34" dominant-baseline="ideographic">Language Model</tspan></text></g></g></g><g id="g-root-tx_agentcor_v48lvbzasjkb-fill" data-item-order="1000000000" transform="translate(123, 342)"><g id="tx_agentcor_v48lvbzasjkb-fill" stroke="none" fill="#1eabda"><g><text style="font: 20px Roboto, sans-serif; white-space: pre;" font-size="20px" font-family="Roboto, sans-serif"><tspan x="14.47" y="34" dominant-baseline="ideographic">Agent Core</tspan></text></g></g></g><g id="g-root-cont_htekl3zashzg-fill" data-item-order="1000000000" transform="translate(237, 339)"></g><g id="g-root-tx_uiintera_7qtvbzaoavh-fill" data-item-order="1000000000" transform="translate(503, 138)"><g id="tx_uiintera_7qtvbzaoavh-fill" stroke="none" fill="#92bd39"><g><text style="font: 20px Roboto, sans-serif; white-space: pre;" font-size="20px" font-family="Roboto, sans-serif"><tspan x="15.05" y="34" dominant-baseline="ideographic">UI/Interaction</tspan></text></g></g></g><g id="g-root-form_dbpn7bzah9tu-fill" data-item-order="1000000000" transform="translate(381, 480)"></g><g id="g-root-tx_techstac_i0w9mfzafxmx-fill" data-item-order="1000000000" transform="translate(351, 534)"><g id="tx_techstac_i0w9mfzafxmx-fill" stroke="none" fill="#969696"><g><text style="font: 20px Roboto, sans-serif; white-space: pre;" font-size="20px" font-family="Roboto, sans-serif"><tspan x="15.04" y="34" dominant-baseline="ideographic">Tech Stack</tspan></text></g></g></g><g id="g-root-1_vbqawnzamvpj-fill" data-item-order="1000000000" transform="translate(543, 543)"></g><g id="g-root-tx_infrastr_18mkc6vzamxae-fill" data-item-order="1000000000" transform="translate(579, 546)"><g id="tx_infrastr_18mkc6vzamxae-fill" stroke="none" fill="#e55753"><g><text style="font: 20px Roboto, sans-serif; white-space: pre;" font-size="20px" font-family="Roboto, sans-serif"><tspan x="15.7" y="34" dominant-baseline="ideographic">Infrastructure</tspan></text></g></g></g><g id="g-root-tx_ragcompo_hxrw6vzawr2f-fill" data-item-order="1000000000" transform="translate(75, 564)"><g id="tx_ragcompo_hxrw6vzawr2f-fill" stroke="none" fill="#de8431"><g><text style="font: 20px Roboto, sans-serif; white-space: pre;" font-size="20px" font-family="Roboto, sans-serif"><tspan x="14.16" y="34" dominant-baseline="ideographic">RAG Component</tspan></text></g></g></g><g id="g-root-roen_4mbdtjzawsnc-fill" data-item-order="1000000000" transform="translate(237, 561)"></g><g id="g-root-lock_v98ek7zapret-fill" data-item-order="1000000000" transform="translate(345, 765)"></g><g id="g-root-tx_security_18kowxjzapptw-fill" data-item-order="1000000000" transform="translate(381, 768)"><g id="tx_security_18kowxjzapptw-fill" stroke="none" fill="#de58a9"><g><text style="font: 20px Roboto, sans-serif; white-space: pre;" font-size="20px" font-family="Roboto, sans-serif"><tspan x="16.19" y="34" dominant-baseline="ideographic">Security</tspan></text></g></g></g><g id="g-root-ro_1q5q6k7zahc0b-stroke" data-item-order="-19656" transform="translate(327, 456)"><g id="ro_1q5q6k7zahc0b-stroke" fill="none" stroke-linecap="round" stroke-linejoin="round" stroke-miterlimit="4" stroke="#484848" stroke-width="2"><g><path d="M 34 10L 142 10C 142 10 166 10 166 34L 166 112C 166 112 166 136 142 136L 34 136C 34 136 10 136 10 112L 10 34C 10 34 10 10 34 10"></path></g></g></g><g id="g-root-ro_74cs7zawq9t-stroke" data-item-order="-11664" transform="translate(63, 549)"><g id="ro_74cs7zawq9t-stroke" fill="none" stroke-linecap="round" stroke-linejoin="round" stroke-miterlimit="4" stroke="#de8431" stroke-width="2"><g><path d="M 22 10L 214 10C 214 10 226 10 226 22L 226 52C 226 52 226 64 214 64L 22 64C 22 64 10 64 10 52L 10 22C 10 22 10 10 22 10"></path></g></g></g><g id="g-root-ro_i0w9mfzaip6z-stroke" data-item-order="-11664" transform="translate(531, 309)"><g id="ro_i0w9mfzaip6z-stroke" fill="none" stroke-linecap="round" stroke-linejoin="round" stroke-miterlimit="4" stroke="#ba5de5" stroke-width="2"><g><path d="M 22 10L 214 10C 214 10 226 10 226 22L 226 52C 226 52 226 64 214 64L 22 64C 22 64 10 64 10 52L 10 22C 10 22 10 10 22 10"></path></g></g></g><g id="g-root-ro_i09sjbzamxag-stroke" data-item-order="-10368" transform="translate(531, 531)"><g id="ro_i09sjbzamxag-stroke" fill="none" stroke-linecap="round" stroke-linejoin="round" stroke-miterlimit="4" stroke="#e55753" stroke-width="2"><g><path d="M 22 10L 190 10C 190 10 202 10 202 22L 202 52C 202 52 202 64 190 64L 22 64C 22 64 10 64 10 52L 10 22C 10 22 10 10 22 10"></path></g></g></g><g id="g-root-ro_1hhkvcnzaod1j-stroke" data-item-order="-10368" transform="translate(455, 123)"><g id="ro_1hhkvcnzaod1j-stroke" fill="none" stroke-linecap="round" stroke-linejoin="round" stroke-miterlimit="4" stroke="#92bd39" stroke-width="2"><g><path d="M 22 10L 190 10C 190 10 202 10 202 22L 202 52C 202 52 202 64 190 64L 22 64C 22 64 10 64 10 52L 10 22C 10 22 10 10 22 10"></path></g></g></g><g id="g-root-ro_1hittivzawqof-stroke" data-item-order="-9072" transform="translate(187, 141)"><g id="ro_1hittivzawqof-stroke" fill="none" stroke-linecap="round" stroke-linejoin="round" stroke-miterlimit="4" stroke="#7f64ea" stroke-width="2"><g><path d="M 22 10L 166 10C 166 10 178 10 178 22L 178 52C 178 52 178 64 166 64L 22 64C 22 64 10 64 10 52L 10 22C 10 22 10 10 22 10"></path></g></g></g><g id="g-root-ro_24k3bzaskcl-stroke" data-item-order="-9072" transform="translate(111, 327)"><g id="ro_24k3bzaskcl-stroke" fill="none" stroke-linecap="round" stroke-linejoin="round" stroke-miterlimit="4" stroke="#1eabda" stroke-width="2"><g><path d="M 22 10L 166 10C 166 10 178 10 178 22L 178 52C 178 52 178 64 166 64L 22 64C 22 64 10 64 10 52L 10 22C 10 22 10 10 22 10"></path></g></g></g><g id="g-root-ro_hyed9zzappty-stroke" data-item-order="-7776" transform="translate(333, 753)"><g id="ro_hyed9zzappty-stroke" fill="none" stroke-linecap="round" stroke-linejoin="round" stroke-miterlimit="4" stroke="#de58a9" stroke-width="2"><g><path d="M 22 10L 142 10C 142 10 154 10 154 22L 154 52C 154 52 154 64 142 64L 22 64C 22 64 10 64 10 52L 10 22C 10 22 10 10 22 10"></path></g></g></g><g id="g-root-tx_uvicorng_1q6cnnbzar5e0-stroke" data-item-order="0" transform="translate(579, 705)"></g><g id="g-root-cu_qwj9vbzawrgh-stroke" data-item-order="0" transform="translate(355, 168)"><g id="cu_qwj9vbzawrgh-stroke" fill="none" stroke-linecap="round" stroke-linejoin="round" stroke-miterlimit="4" stroke="#969696" stroke-width="2" stroke-dasharray="5.0, 7.0"><g><path d="M 34 298L 34 262L 34 30.9C 33.999998 19.357248 24.64275 10 13.1 10L 13 10L 10 10"></path></g></g></g><g id="g-root-cu_18itho7zay4ni-stroke" data-item-order="0" transform="translate(479, 177)"><g id="cu_18itho7zay4ni-stroke" fill="none" stroke-linecap="round" stroke-linejoin="round" stroke-miterlimit="4" stroke="#969696" stroke-width="2" stroke-dasharray="5.0, 7.0"><g><path d="M 10 10L 10 22L 10 34L 19 34L 28 34"></path></g></g></g><g id="g-root-cu_142zzjrzay5ft-stroke" data-item-order="0" transform="translate(479, 177)"><g id="cu_142zzjrzay5ft-stroke" fill="none" stroke-linecap="round" stroke-linejoin="round" stroke-miterlimit="4" stroke="#969696" stroke-width="2" stroke-dasharray="5.0, 7.0"><g><path d="M 10 10L 10 40L 10 70L 19 70L 28 70"></path></g></g></g><g id="g-root-cu_zn6hfbzay683-stroke" data-item-order="0" transform="translate(479, 177)"><g id="cu_zn6hfbzay683-stroke" fill="none" stroke-linecap="round" stroke-linejoin="round" stroke-miterlimit="4" stroke="#969696" stroke-width="2" stroke-dasharray="5.0, 7.0"><g><path d="M 10 10L 10 22L 10 94C 10.000004 100.627423 15.372587 106.000006 22.000005 106.000005L 22.1 106L 28 106"></path></g></g></g><g id="g-root-tx_snowflak_zs6a47zaprt6-stroke" data-item-order="0" transform="translate(211, 207)"></g><g id="g-root-cu_v5hk1jzay77q-stroke" data-item-order="0" transform="translate(313, 195)"><g id="cu_v5hk1jzay77q-stroke" fill="none" stroke-linecap="round" stroke-linejoin="round" stroke-miterlimit="4" stroke="#969696" stroke-width="2" stroke-dasharray="5.0, 7.0"><g><path d="M 28 10L 28 22L 28 34L 19 34L 10 34"></path></g></g></g><g id="g-root-cu_qqaj07zay4u9-stroke" data-item-order="0" transform="translate(313, 195)"><g id="cu_qqaj07zay4u9-stroke" fill="none" stroke-linecap="round" stroke-linejoin="round" stroke-miterlimit="4" stroke="#969696" stroke-width="2" stroke-dasharray="5.0, 7.0"><g><path d="M 28 10L 28 40L 28 70L 19 70L 10 70"></path></g></g></g><g id="g-root-cu_hunirbzay5mz-stroke" data-item-order="0" transform="translate(313, 195)"><g id="cu_hunirbzay5mz-stroke" fill="none" stroke-linecap="round" stroke-linejoin="round" stroke-miterlimit="4" stroke="#969696" stroke-width="2" stroke-dasharray="5.0, 7.0"><g><path d="M 28 10L 28 22L 28 94C 28.000002 100.627415 22.627419 105.999998 16.000002 105.999998L 15.9 106L 10 106"></path></g></g></g><g id="g-root-tx_streamli_1cvimd3zar3t5-stroke" data-item-order="0" transform="translate(503, 189)"></g><g id="g-root-tx_gradio_18fp48nzar4le-stroke" data-item-order="0" transform="translate(503, 225)"></g><g id="g-root-tx_git_v2znp3zar403-stroke" data-item-order="0" transform="translate(271, 243)"></g><g id="g-root-tx_rich_v48lvbzar66b-stroke" data-item-order="0" transform="translate(503, 261)"></g><g id="g-root-tx_dbt_hrj5brzar5l0-stroke" data-item-order="0" transform="translate(271, 279)"></g><g id="g-root-cu_dbpn7bzay4g7-stroke" data-item-order="0" transform="translate(431, 150)"><g id="cu_dbpn7bzay4g7-stroke" fill="none" stroke-linecap="round" stroke-linejoin="round" stroke-miterlimit="4" stroke="#969696" stroke-width="2" stroke-dasharray="5.0, 7.0"><g><path d="M 10 316L 10 277.8L 10 30.9C 10 19.357248 19.357248 10 30.899998 10L 31 10L 34 10"></path></g></g></g><g id="g-root-cu_vccrzrzawqo3-stroke" data-item-order="0" transform="translate(483, 336)"><g id="cu_vccrzrzawqo3-stroke" fill="none" stroke-linecap="round" stroke-linejoin="round" stroke-miterlimit="4" stroke="#969696" stroke-width="2" stroke-dasharray="5.0, 7.0"><g><path d="M 10 172L 13 172L 13.1 172C 24.642755 172.000003 34.000004 162.642754 34.000003 151.100002L 34 151L 34 30.9C 33.999999 19.357249 43.357248 10.000001 54.899999 10.000002L 55 10L 58 10"></path></g></g></g><g id="g-root-tx_pythonjo_4hy27rzar66d-stroke" data-item-order="0" transform="translate(381, 855)"></g><g id="g-root-cu_qrjh6fzay70t-stroke" data-item-order="0" transform="translate(357, 807)"><g id="cu_qrjh6fzay70t-stroke" fill="none" stroke-linecap="round" stroke-linejoin="round" stroke-miterlimit="4" stroke="#969696" stroke-width="2" stroke-dasharray="5.0, 7.0"><g><path d="M 10 10L 10 22L 10 34L 19 34L 28 34"></path></g></g></g><g id="g-root-cu_18n6t9zzaws8w-stroke" data-item-order="0" transform="translate(279, 354)"><g id="cu_18n6t9zzaws8w-stroke" fill="none" stroke-linecap="round" stroke-linejoin="round" stroke-miterlimit="4" stroke="#969696" stroke-width="2" stroke-dasharray="5.0, 7.0"><g><path d="M 58 154L 55 154L 54.9 154C 43.357249 154.000001 34 144.642752 34 133.1L 34 133L 34 30.9C 33.999998 19.357248 24.64275 10 13.1 10L 13 10L 10 10"></path></g></g></g><g id="g-root-cu_m8llmfzay5ty-stroke" data-item-order="0" transform="translate(555, 363)"><g id="cu_m8llmfzay5ty-stroke" fill="none" stroke-linecap="round" stroke-linejoin="round" stroke-miterlimit="4" stroke="#969696" stroke-width="2" stroke-dasharray="5.0, 7.0"><g><path d="M 10 10L 10 22L 10 34L 19 34L 28 34"></path></g></g></g><g id="g-root-cu_8xrkc7zay495-stroke" data-item-order="0" transform="translate(555, 363)"><g id="cu_8xrkc7zay495-stroke" fill="none" stroke-linecap="round" stroke-linejoin="round" stroke-miterlimit="4" stroke="#969696" stroke-width="2" stroke-dasharray="5.0, 7.0"><g><path d="M 10 10L 10 40L 10 70L 19 70L 28 70"></path></g></g></g><g id="g-root-cu_4hy27rzay51f-stroke" data-item-order="0" transform="translate(555, 363)"><g id="cu_4hy27rzay51f-stroke" fill="none" stroke-linecap="round" stroke-linejoin="round" stroke-miterlimit="4" stroke="#969696" stroke-width="2" stroke-dasharray="5.0, 7.0"><g><path d="M 10 10L 10 58L 10 106L 19 106L 28 106"></path></g></g></g><g id="g-root-cu_1unf3xzzay5n1-stroke" data-item-order="0" transform="translate(555, 363)"><g id="cu_1unf3xzzay5n1-stroke" fill="none" stroke-linecap="round" stroke-linejoin="round" stroke-miterlimit="4" stroke="#969696" stroke-width="2" stroke-dasharray="5.0, 7.0"><g><path d="M 10 10L 10 26.5L 10 130C 10.000005 136.627425 15.372589 142.000008 22.000006 142.000007L 22.1 142L 28 142"></path></g></g></g><g id="g-root-tx_python39_92rd13zapqmn-stroke" data-item-order="0" transform="translate(111, 393)"></g><g id="g-root-cu_94tzzay619-stroke" data-item-order="0" transform="translate(237, 381)"><g id="cu_94tzzay619-stroke" fill="none" stroke-linecap="round" stroke-linejoin="round" stroke-miterlimit="4" stroke="#969696" stroke-width="2" stroke-dasharray="5.0, 7.0"><g><path d="M 28 10L 28 22L 28 34L 19 34L 10 34"></path></g></g></g><g id="g-root-cu_1cuw59zzay5ts-stroke" data-item-order="0" transform="translate(237, 381)"><g id="cu_1cuw59zzay5ts-stroke" fill="none" stroke-linecap="round" stroke-linejoin="round" stroke-miterlimit="4" stroke="#969696" stroke-width="2" stroke-dasharray="5.0, 7.0"><g><path d="M 28 10L 28 40L 28 70L 19 70L 10 70"></path></g></g></g><g id="g-root-cu_zk23zrzay48y-stroke" data-item-order="0" transform="translate(237, 381)"><g id="cu_zk23zrzay48y-stroke" fill="none" stroke-linecap="round" stroke-linejoin="round" stroke-miterlimit="4" stroke="#969696" stroke-width="2" stroke-dasharray="5.0, 7.0"><g><path d="M 28 10L 28 58L 28 106L 19 106L 10 106"></path></g></g></g><g id="g-root-cu_qof3qvzay51o-stroke" data-item-order="0" transform="translate(237, 381)"><g id="cu_qof3qvzay51o-stroke" fill="none" stroke-linecap="round" stroke-linejoin="round" stroke-miterlimit="4" stroke="#969696" stroke-width="2" stroke-dasharray="5.0, 7.0"><g><path d="M 28 10L 28 26.5L 28 130C 28.000005 136.627421 22.627422 142.000005 16.000005 142.000005L 15.9 142L 10 142"></path></g></g></g><g id="g-root-tx_openaiap_zqxbxzzappmz-stroke" data-item-order="0" transform="translate(579, 375)"></g><g id="g-root-tx_anthropi_vb3ttjzapqf8-stroke" data-item-order="0" transform="translate(579, 411)"></g><g id="g-root-tx_langchai_7qtvbzapp1c-stroke" data-item-order="0" transform="translate(15, 429)"></g><g id="g-root-tx_llama3_i09sjbzapoud-stroke" data-item-order="0" transform="translate(579, 447)"></g><g id="g-root-tx_fastapi_1qd7vljzappmx-stroke" data-item-order="0" transform="translate(147, 465)"></g><g id="g-root-cu_mccg53zay4nc-stroke" data-item-order="0" transform="translate(357, 807)"><g id="cu_mccg53zay4nc-stroke" fill="none" stroke-linecap="round" stroke-linejoin="round" stroke-miterlimit="4" stroke="#969696" stroke-width="2" stroke-dasharray="5.0, 7.0"><g><path d="M 10 10L 10 40L 10 70L 19 70L 28 70"></path></g></g></g><g id="g-root-cu_hwiy0nzay5fm-stroke" data-item-order="0" transform="translate(357, 807)"><g id="cu_hwiy0nzay5fm-stroke" fill="none" stroke-linecap="round" stroke-linejoin="round" stroke-miterlimit="4" stroke="#969696" stroke-width="2" stroke-dasharray="5.0, 7.0"><g><path d="M 10 10L 10 22L 10 94C 10.000004 100.627423 15.372587 106.000006 22.000005 106.000005L 22.1 106L 28 106"></path></g></g></g><g id="g-root-tx_mistrala_94msafzappn2-stroke" data-item-order="0" transform="translate(579, 483)"></g><g id="g-root-tx_pydantic_1d1rd87zapr7u-stroke" data-item-order="0" transform="translate(147, 501)"></g><g id="g-root-cu_vccrzrzawqo6-stroke" data-item-order="0" transform="translate(279, 540)"><g id="cu_vccrzrzawqo6-stroke" fill="none" stroke-linecap="round" stroke-linejoin="round" stroke-miterlimit="4" stroke="#969696" stroke-width="2" stroke-dasharray="5.0, 7.0"><g><path d="M 58 10L 55 10L 54.9 10C 50.350902 9.994769 45.487624 11.792068 41.1 15.099998C 38.462623 17.103929 35.872373 21.810158 34 28.000001C 32.127628 34.189843 29.537377 38.896072 26.9 40.900001C 22.512376 44.207931 17.649098 46.00523 13.099999 46.000002L 13 46L 10 46"></path></g></g></g><g id="g-root-cu_i0w9mfzaws98-stroke" data-item-order="0" transform="translate(483, 540)"><g id="cu_i0w9mfzaws98-stroke" fill="none" stroke-linecap="round" stroke-linejoin="round" stroke-miterlimit="4" stroke="#969696" stroke-width="2" stroke-dasharray="5.0, 7.0"><g><path d="M 10 10L 13 10L 13.1 10C 16.63228 9.979927 20.514747 10.763232 24.5 12.300001C 26.884298 13.264007 30.256797 15.642506 34.000001 19.000001C 37.743204 22.357495 41.115704 24.735995 43.500001 25.700001C 47.485253 27.236771 51.36772 28.020075 54.9 28.000003L 55 28L 58 28"></path></g></g></g><g id="g-root-tx_pyjwt_1q882wnzar4ee-stroke" data-item-order="0" transform="translate(381, 891)"></g><g id="g-root-tx_pythondo_htekl3zar4lg-stroke" data-item-order="0" transform="translate(381, 819)"></g><g id="g-root-tx_comprehe_90vxrrzay68c-stroke" data-item-order="0" transform="translate(75, 39)"></g><g id="g-root-cu_8vw52vzay58i-stroke" data-item-order="0" transform="translate(405, 582)"><g id="cu_8vw52vzay58i-stroke" fill="none" stroke-linecap="round" stroke-linejoin="round" stroke-miterlimit="4" stroke="#969696" stroke-width="2" stroke-dasharray="5.0, 7.0"><g><path d="M 10 10L 10 95.5L 10 181"></path></g></g></g><g id="g-root-cu_4j70dzzay77x-stroke" data-item-order="0" transform="translate(555, 585)"><g id="cu_4j70dzzay77x-stroke" fill="none" stroke-linecap="round" stroke-linejoin="round" stroke-miterlimit="4" stroke="#969696" stroke-width="2" stroke-dasharray="5.0, 7.0"><g><path d="M 10 10L 10 22L 10 34L 19 34L 28 34"></path></g></g></g><g id="g-root-cu_3zzcnzay4ug-stroke" data-item-order="0" transform="translate(555, 585)"><g id="cu_3zzcnzay4ug-stroke" fill="none" stroke-linecap="round" stroke-linejoin="round" stroke-miterlimit="4" stroke="#969696" stroke-width="2" stroke-dasharray="5.0, 7.0"><g><path d="M 10 10L 10 40L 10 70L 19 70L 28 70"></path></g></g></g><g id="g-root-cu_1upaj7bzay5fm-stroke" data-item-order="0" transform="translate(555, 585)"><g id="cu_1upaj7bzay5fm-stroke" fill="none" stroke-linecap="round" stroke-linejoin="round" stroke-miterlimit="4" stroke="#969696" stroke-width="2" stroke-dasharray="5.0, 7.0"><g><path d="M 10 10L 10 58L 10 106L 19 106L 28 106"></path></g></g></g><g id="g-root-cu_1ltniyfzay68c-stroke" data-item-order="0" transform="translate(555, 585)"><g id="cu_1ltniyfzay68c-stroke" fill="none" stroke-linecap="round" stroke-linejoin="round" stroke-miterlimit="4" stroke="#969696" stroke-width="2" stroke-dasharray="5.0, 7.0"><g><path d="M 10 10L 10 26.5L 10 130C 10.000005 136.627425 15.372589 142.000008 22.000006 142.000007L 22.1 142L 28 142"></path></g></g></g><g id="g-root-tx_docker_8vw52vzar6dp-stroke" data-item-order="0" transform="translate(579, 597)"></g><g id="g-root-tx_vectorda_1qegtrrzaprt3-stroke" data-item-order="0" transform="translate(75, 615)"></g><g id="g-root-cu_1hbylknzay77z-stroke" data-item-order="0" transform="translate(237, 603)"><g id="cu_1hbylknzay77z-stroke" fill="none" stroke-linecap="round" stroke-linejoin="round" stroke-miterlimit="4" stroke="#969696" stroke-width="2" stroke-dasharray="5.0, 7.0"><g><path d="M 28 10L 28 22L 28 34L 19 34L 10 34"></path></g></g></g><g id="g-root-cu_1cwrkjbzay4ui-stroke" data-item-order="0" transform="translate(237, 603)"><g id="cu_1cwrkjbzay4ui-stroke" fill="none" stroke-linecap="round" stroke-linejoin="round" stroke-miterlimit="4" stroke="#969696" stroke-width="2" stroke-dasharray="5.0, 7.0"><g><path d="M 28 10L 28 40L 28 70L 19 70L 10 70"></path></g></g></g><g id="g-root-cu_zlb25zzay6fg-stroke" data-item-order="0" transform="translate(237, 603)"><g id="cu_zlb25zzay6fg-stroke" fill="none" stroke-linecap="round" stroke-linejoin="round" stroke-miterlimit="4" stroke="#969696" stroke-width="2" stroke-dasharray="5.0, 7.0"><g><path d="M 28 10L 28 22L 28 94C 28.000002 100.627415 22.627419 105.999998 16.000002 105.999998L 15.9 106L 10 106"></path></g></g></g><g id="g-root-tx_redis_4gp41jzar406-stroke" data-item-order="0" transform="translate(579, 633)"></g><g id="g-root-tx_embeddin_1lz9sqfzappfk-stroke" data-item-order="0" transform="translate(111, 651)"></g><g id="g-root-tx_poetry_1um65rrzar4lr-stroke" data-item-order="0" transform="translate(579, 669)"></g><g id="g-root-tx_document_1d3mshjzapq89-stroke" data-item-order="0" transform="translate(27, 687)"></g><g id="g-root-data_1qegtrrzawpvq-stroke" data-item-order="1000000000" transform="translate(313, 153)"><g id="data_1qegtrrzawpvq-stroke" fill="none" stroke-linecap="round" stroke-linejoin="round" stroke-miterlimit="4" stroke="#7f64ea" stroke-width="2"><g><path d="M 36.5625 10.9375C 37.9375 10.9375 39.0625 12.0625 39.0625 13.4375L 39.0625 18.4375L 10.9375 18.4375L 10.9375 13.4375C 10.9375 12.0625 12.0625 10.9375 13.4375 10.9375L 36.5625 10.9375ZM 20.3125 18.4375L 20.3125 33.1875L 13.4375 33.1875C 12.0625 33.1875 10.9375 32.0625 10.9375 30.6875L 10.9375 18.4375L 20.3125 18.4375ZM 10.9375 25.9375L 20.3125 25.9375M 23.4375 33.1875L 20.3125 33.1875M 20.3125 25.9375L 23.4375 25.9375M 29.6875 18.4375L 39.0625 18.4375L 39.0625 20.9375M 33.4375 27.8125C 36.544125 27.8125 39.0625 26.973 39.0625 25.9375C 39.0625 24.902 36.544125 24.0625 33.4375 24.0625C 30.330875 24.0625 27.8125 24.902 27.8125 25.9375C 27.8125 26.973 30.330875 27.8125 33.4375 27.8125ZM 39.0625 25.9375L 39.0625 31.5625C 39.0625 32.5625 36.5625 33.4375 33.4375 33.4375C 30.3125 33.4375 27.8125 32.5625 27.8125 31.5625L 27.8125 25.9375M 39.0625 31.5625L 39.0625 37.1875C 39.0625 38.1875 36.5625 39.0625 33.4375 39.0625C 30.3125 39.0625 27.8125 38.1875 27.8125 37.1875L 27.8125 31.5625M 29.6875 18.4375L 29.6875 20.580688"></path></g></g></g><g id="g-root-shap_1lxedh3zaoc9a-stroke" data-item-order="1000000000" transform="translate(467, 135)"><g id="shap_1lxedh3zaoc9a-stroke" fill="none" stroke-linecap="round" stroke-linejoin="round" stroke-miterlimit="4" stroke="#92bd39" stroke-width="2"><g><path d="M 11.875 10.625L 38.125 10.625C 38.125 10.625 39.375 10.625 39.375 11.875L 39.375 38.125C 39.375 38.125 39.375 39.375 38.125 39.375L 11.875 39.375C 11.875 39.375 10.625 39.375 10.625 38.125L 10.625 11.875C 10.625 11.875 10.625 10.625 11.875 10.625M 14.375 23.75C 14.375 26.856602 16.893398 29.375 20 29.375C 23.106602 29.375 25.625 26.856602 25.625 23.75C 25.625 20.643398 23.106602 18.125 20 18.125C 16.893398 18.125 14.375 20.643398 14.375 23.75M 28.125 14.375L 21.875 14.375C 21.184643 14.375 20.625 14.934644 20.625 15.625L 20.625 18.16C 23.236584 18.452057 25.297943 20.513416 25.59 23.125L 28.125 23.125C 28.815357 23.125 29.375 22.565357 29.375 21.875L 29.375 15.625C 29.375 14.934644 28.815357 14.375 28.125 14.375ZM 33.125 18.125L 36.875 18.125M 33.125 20.625L 35.625 20.625M 14.375 33.125L 25.625 33.125M 14.375 35.625L 18.125 35.625M 28.125 26.25L 32.275002 29.70875M 33.125 29.375L 35.625 29.375C 35.625 29.375 36.875 29.375 36.875 30.625L 36.875 35.625C 36.875 35.625 36.875 36.875 35.625 36.875L 33.125 36.875C 33.125 36.875 31.875 36.875 31.875 35.625L 31.875 30.625C 31.875 30.625 31.875 29.375 33.125 29.375M 20.625 35.625L 21.875 35.625M 33.125 15.625L 36.875 15.625"></path></g></g></g><g id="g-root-tx_connecto_940b7bzawqvh-stroke" data-item-order="1000000000" transform="translate(199, 156)"></g><g id="g-root-word_qwj9vbzaioea-stroke" data-item-order="1000000000" transform="translate(543, 321)"><g id="word_qwj9vbzaioea-stroke" fill="none" stroke-linecap="round" stroke-linejoin="round" stroke-miterlimit="4" stroke="#ba5de5" stroke-width="2"><g><path d="M 18.125 32.5L 18.125 36.25C 18.125 36.940353 18.684645 37.5 19.375 37.5L 38.125 37.5C 38.815353 37.5 39.375 36.940353 39.375 36.25L 39.375 13.75C 39.375 13.059644 38.815353 12.5 38.125 12.5L 19.375 12.5C 18.684645 12.5 18.125 13.059644 18.125 13.75L 18.125 17.5M 25.625 25L 39.375 25M 25.625 18.75L 39.375 18.75M 25.625 31.25L 39.375 31.25M 11.875 17.5L 24.375 17.5C 24.375 17.5 25.625 17.5 25.625 18.75L 25.625 31.25C 25.625 31.25 25.625 32.5 24.375 32.5L 11.875 32.5C 11.875 32.5 10.625 32.5 10.625 31.25L 10.625 18.75C 10.625 18.75 10.625 17.5 11.875 17.5M 13.75 21.25L 15.625 28.75L 18.125 21.25L 20.625 28.75L 22.5 21.25"></path></g></g></g><g id="g-root-tx_language_147db5jzaipz5-stroke" data-item-order="1000000000" transform="translate(579, 324)"></g><g id="g-root-tx_agentcor_v48lvbzasjkb-stroke" data-item-order="1000000000" transform="translate(123, 342)"></g><g id="g-root-cont_htekl3zashzg-stroke" data-item-order="1000000000" transform="translate(237, 339)"><g id="cont_htekl3zashzg-stroke" fill="none" stroke-linecap="round" stroke-linejoin="round" stroke-miterlimit="4" stroke="#1eabda" stroke-width="2"><g><path d="M 25.3575 38.02375C 25.3575 38.763611 24.757359 39.36319 24.0175 39.362499L 11.96375 39.362499C 11.224379 39.362499 10.625 38.763119 10.625 38.02375L 10.625 34.674999C 10.625 30.606731 13.922983 27.308752 17.991251 27.308752C 22.059519 27.308752 25.3575 30.606731 25.3575 34.675003ZM 15.17875 31.862499C 15.17875 32.035088 15.318661 32.174999 15.49125 32.174999C 15.663839 32.174999 15.80375 32.035088 15.80375 31.862499C 15.80375 31.689911 15.663839 31.549999 15.49125 31.549999C 15.318661 31.549999 15.17875 31.689911 15.17875 31.862499M 20.178749 31.855C 20.178749 32.027588 20.318661 32.1675 20.491249 32.1675C 20.663839 32.1675 20.803749 32.027588 20.803749 31.855C 20.803749 31.682411 20.663839 31.5425 20.491249 31.5425C 20.318661 31.5425 20.178749 31.682411 20.178749 31.855M 17.991251 27.309999L 17.991251 24.63125M 15.9825 22.622499C 15.9825 23.731903 16.881847 24.63125 17.991251 24.63125C 19.100653 24.63125 20 23.731903 20 22.622501C 20 21.513098 19.100653 20.61375 17.991251 20.61375C 16.881847 20.61375 15.9825 21.513098 15.9825 22.622501M 18.125 18.112499L 18.125 11.8875C 18.125 11.197145 18.684645 10.6375 19.375 10.6375L 38.125 10.6375C 38.815353 10.6375 39.375 11.197145 39.375 11.8875L 39.375 22.463749C 39.375 23.154106 38.815353 23.713749 38.125 23.713749L 23.125 23.713749M 24.515001 14.2225L 24.515001 20.12875M 21.5625 17.174999L 27.46875 17.174999M 33.75 14.675C 33.922588 14.675 34.0625 14.814911 34.0625 14.9875M 33.4375 14.9875C 33.4375 14.814911 33.577412 14.675 33.75 14.675M 33.75 15.299999C 33.577412 15.299999 33.4375 15.160089 33.4375 14.9875M 34.0625 14.9875C 34.0625 15.160089 33.922588 15.299999 33.75 15.299999M 33.75 19.19125C 33.922588 19.19125 34.0625 19.331161 34.0625 19.50375M 33.4375 19.5C 33.4375 19.327412 33.577412 19.1875 33.75 19.1875M 33.75 19.81625C 33.577412 19.81625 33.4375 19.676338 33.4375 19.50375M 34.0625 19.5C 34.0625 19.672588 33.922588 19.8125 33.75 19.8125M 36.32 17.25C 36.32 17.422588 36.180088 17.5625 36.0075 17.5625M 36.0075 16.93375C 36.090481 16.933416 36.170162 16.966232 36.228836 17.02491C 36.287518 17.083588 36.320335 17.163267 36.32 17.24625M 35.695 17.25C 35.694664 17.167017 35.727482 17.087337 35.78616 17.02866C 35.844837 16.969982 35.924519 16.937166 36.0075 16.9375M 36.0075 17.55875C 35.834911 17.55875 35.695 17.418839 35.695 17.24625M 31.805 17.25C 31.805 17.422588 31.665089 17.5625 31.4925 17.5625M 31.4925 16.93375C 31.575481 16.933416 31.655161 16.966232 31.713839 17.02491C 31.772516 17.083588 31.805334 17.163267 31.805 17.24625M 31.18 17.25C 31.179667 17.167017 31.212482 17.087337 31.27116 17.02866C 31.329838 16.969982 31.409515 16.937166 31.4925 16.9375M 31.4925 17.55875C 31.319912 17.55875 31.18 17.418839 31.18 17.24625M 10.625 36.006248L 25.3575 36.006248"></path></g></g></g><g id="g-root-tx_uiintera_7qtvbzaoavh-stroke" data-item-order="1000000000" transform="translate(503, 138)"></g><g id="g-root-form_dbpn7bzah9tu-stroke" data-item-order="1000000000" transform="translate(381, 480)"><g id="form_dbpn7bzah9tu-stroke" fill="none" stroke-linecap="round" stroke-linejoin="round" stroke-miterlimit="4" stroke="#969696" stroke-width="2"><g><path d="M 13 14.139999L 44.540001 14.139999C 44.540001 14.139999 46.540001 14.139999 46.540001 16.139999L 46.540001 51.860001C 46.540001 51.860001 46.540001 53.860001 44.540001 53.860001L 13 53.860001C 13 53.860001 11 53.860001 11 51.860001L 11 16.139999C 11 16.139999 11 14.139999 13 14.139999M 51.779999 48.639999L 51.779999 34L 51.779999 19.360001M 57 45.5L 57 22.5M 19.360001 20.42L 19.360001 32.959999L 36.440002 20.42L 19.360001 20.42ZM 19.360001 37.700001L 24.58 34L 32.84 34.02L 19.360001 43.099998L 19.360001 37.700001ZM 19.360001 47.599998L 26.68 42.68L 26.68 47.599998L 19.360001 47.599998Z"></path></g></g></g><g id="g-root-tx_techstac_i0w9mfzafxmx-stroke" data-item-order="1000000000" transform="translate(351, 534)"></g><g id="g-root-1_vbqawnzamvpj-stroke" data-item-order="1000000000" transform="translate(543, 543)"><g id="1_vbqawnzamvpj-stroke" fill="none" stroke-linecap="round" stroke-linejoin="round" stroke-miterlimit="4" stroke="#e55753" stroke-width="2"><g><path d="M 24.875 28.1875L 24.875 30.9375M 36.4375 30.9375C 36.4375 30.1875 35.9375 29.6875 35.1875 29.6875L 14.562525 29.6875C 13.812525 29.6875 13.312525 30.1875 13.312525 30.9375M 23.125 21.3125L 23.125 12.1875C 23.125 11.4375 23.625 10.9375 24.375 10.9375L 25.625 10.9375C 26.375 10.9375 26.875 11.4375 26.875 12.1875L 26.875 21.1875M 34.375 23.8125C 34.375 24.5625 33.875 25.0625 33.125 25.0625L 16.875 25.0625C 16.125 25.0625 15.625 24.5625 15.625 23.8125L 15.625 22.5625C 15.625 21.812489 16.125 21.312487 16.875 21.312487L 33.125 21.312487C 33.875 21.312487 34.375 21.812489 34.375 22.5625L 34.375 23.8125ZM 26.875 13.4375C 30.125 14.3125 32.5 17.1875 32.5 20.6875L 32.5 21.3125M 23.125 13.4375C 19.875 14.3125 17.5 17.1875 17.5 20.6875L 17.5 21.3125M 15.9375 39.0625L 10.9375 39.0625L 10.9375 36.5625L 13.4375 34.0625L 15.9375 36.5625L 15.9375 39.0625ZM 27.1875 39.0625L 22.1875 39.0625L 22.1875 36.5625L 24.6875 34.0625L 27.1875 36.5625L 27.1875 39.0625ZM 39.0625 39.0625L 34.0625 39.0625L 34.0625 36.5625L 36.5625 34.0625L 39.0625 36.5625L 39.0625 39.0625Z"></path></g></g></g><g id="g-root-tx_infrastr_18mkc6vzamxae-stroke" data-item-order="1000000000" transform="translate(579, 546)"></g><g id="g-root-tx_ragcompo_hxrw6vzawr2f-stroke" data-item-order="1000000000" transform="translate(75, 564)"></g><g id="g-root-roen_4mbdtjzawsnc-stroke" data-item-order="1000000000" transform="translate(237, 561)"><g id="roen_4mbdtjzawsnc-stroke" fill="none" stroke-linecap="round" stroke-linejoin="round" stroke-miterlimit="4" stroke="#de8431" stroke-width="2"><g><path d="M 11.875 10.625L 38.125 10.625C 38.125 10.625 39.375 10.625 39.375 11.875L 39.375 38.125C 39.375 38.125 39.375 39.375 38.125 39.375L 11.875 39.375C 11.875 39.375 10.625 39.375 10.625 38.125L 10.625 11.875C 10.625 11.875 10.625 10.625 11.875 10.625M 18.75 33.75L 25 33.75M 17.8125 30.625L 17.8125 25.9375M 17.8125 25.9375L 17.8125 19.375L 20.15625 19.375C 21.968435 19.375 23.4375 20.844067 23.4375 22.65625L 23.4375 22.65625C 23.4375 24.468435 21.968435 25.9375 20.15625 25.9375L 17.8125 25.9375ZM 21.5625 25.9375L 23.90625 30.625M 29.67375 24.377501L 29.67375 24.377501C 29.67375 24.377501 27.5825 24.377501 27.5825 26.46875L 27.5825 28.559999C 27.5825 28.559999 27.5825 30.651249 29.67375 30.651249L 29.67375 30.651249C 29.67375 30.651249 31.765001 30.651249 31.765001 28.559999L 31.765001 26.46875C 31.765001 26.46875 31.765001 24.377501 29.67375 24.377501M 31.765001 28.559999L 31.765001 31.3475C 31.765356 32.214729 31.230419 32.992195 30.42034 33.3018C 29.610256 33.611408 28.69314 33.388905 28.115 32.742496"></path></g></g></g><g id="g-root-lock_v98ek7zapret-stroke" data-item-order="1000000000" transform="translate(345, 765)"><g id="lock_v98ek7zapret-stroke" fill="none" stroke-linecap="round" stroke-linejoin="round" stroke-miterlimit="4" stroke="#de58a9" stroke-width="2"><g><path d="M 29.375 29.375L 38.125 29.375C 38.125 29.375 39.375 29.375 39.375 30.625L 39.375 38.125C 39.375 38.125 39.375 39.375 38.125 39.375L 29.375 39.375C 29.375 39.375 28.125 39.375 28.125 38.125L 28.125 30.625C 28.125 30.625 28.125 29.375 29.375 29.375M 32.1875 34.450001C 32.1875 35.312946 32.887054 36.012501 33.75 36.012501C 34.612946 36.012501 35.3125 35.312946 35.3125 34.450001C 35.3125 33.587055 34.612946 32.887501 33.75 32.887501C 32.887054 32.887501 32.1875 33.587055 32.1875 34.450001M 36.875 27.5C 36.875 25.774111 35.475891 24.375 33.75 24.375C 32.024109 24.375 30.625 25.774111 30.625 27.5L 30.625 29.375L 36.875 29.375ZM 20 18.75C 20 21.511423 22.238577 23.75 25 23.75C 27.761423 23.75 30 21.511423 30 18.75C 30 15.988577 27.761423 13.75 25 13.75C 22.238577 13.75 20 15.988577 20 18.75M 25 16.875C 26.035534 16.875 26.875 17.714466 26.875 18.75C 26.875 19.785534 26.035534 20.625 25 20.625C 23.964466 20.625 23.125 19.785534 23.125 18.75M 35.924999 22.3125C 37.105156 21.354197 38.204678 20.300659 39.212498 19.1625C 39.425476 18.928734 39.425476 18.571266 39.212502 18.3375C 37.762497 16.6875 31.949999 10.625 25 10.625C 18.049999 10.625 12.2375 16.6875 10.775 18.3375C 10.573074 18.575432 10.573074 18.924566 10.775 19.1625C 12.2375 20.8125 18.049999 26.875 25 26.875C 26.088923 26.874411 27.173101 26.731533 28.225 26.450001"></path></g></g></g><g id="g-root-tx_security_18kowxjzapptw-stroke" data-item-order="1000000000" transform="translate(381, 768)"></g></g></g></svg>