<?xml version="1.0" encoding="utf-8" standalone="yes"?>
<!DOCTYPE svg PUBLIC "-//W3C//DTD SVG 1.1//EN" "http://www.w3.org/Graphics/SVG/1.1/DTD/svg11.dtd">
<svg width="1042" height="458" viewBox="0 0 1042 458" style="fill:none;stroke:none;fill-rule:evenodd;clip-rule:evenodd;stroke-linecap:round;stroke-linejoin:round;stroke-miterlimit:1.5;" version="1.1" xmlns="http://www.w3.org/2000/svg" xmlns:xlink="http://www.w3.org/1999/xlink"><style class="text-font-style fontImports" data-font-family="Roboto">@import url('https://fonts.googleapis.com/css2?family=Roboto:wght@400;700&amp;display=block');</style><g id="items" style="isolation: isolate"><g id="blend" style="mix-blend-mode: normal"><g id="g-root-1.g-1_fr_8vvvlzxwm4ub-fill" data-item-order="-333304" transform="translate(39, 207)"><g id="1.g-1_fr_8vvvlzxwm4ub-fill" stroke="none" fill="#edf4ff"><g><path d="M 166 10L 22 10L 22 82L 166 82L 166 10ZM 193.5 46L 169.5 10L 166 10L 166 82L 169.5 82L 193.5 46ZM 10 46L 10 82L 22 82L 22 10L 10 10L 10 46Z"></path></g></g></g><g id="g-root-2.g-2_fr_1uljf7rxwm685-fill" data-item-order="-333278" transform="translate(211, 207)"><g id="2.g-2_fr_1uljf7rxwm685-fill" stroke="none" fill="#e8f9ff"><g><path d="M 188 10L 44 10L 44 82L 188 82L 188 10ZM 215.5 46L 191.5 10L 188 10L 188 82L 191.5 82L 215.5 46ZM 34 46L 10 82L 44 82L 44 10L 10 10L 34 46Z"></path></g></g></g><g id="g-root-3.g-3_fr_1hapdxjxwm4nb-fill" data-item-order="-333252" transform="translate(405, 207)"><g id="3.g-3_fr_1hapdxjxwm4nb-fill" stroke="none" fill="#e3fff2"><g><path d="M 188 10L 44 10L 44 82L 188 82L 188 10ZM 215.5 46L 191.5 10L 188 10L 188 82L 191.5 82L 215.5 46ZM 34 46L 10 82L 44 82L 44 10L 10 10L 34 46Z"></path></g></g></g><g id="g-root-4.g-4_fr_1cuvvt3xwm5fl-fill" data-item-order="-333226" transform="translate(599, 207)"><g id="4.g-4_fr_1cuvvt3xwm5fl-fill" stroke="none" fill="#f4ffdc"><g><path d="M 188 10L 44 10L 44 82L 188 82L 188 10ZM 215.5 46L 191.5 10L 188 10L 188 82L 191.5 82L 215.5 46ZM 34 46L 10 82L 44 82L 44 10L 10 10L 34 46Z"></path></g></g></g><g id="g-root-5.g-5_fr_13z8vk7xwm68b-fill" data-item-order="-333200" transform="translate(793, 207)"><g id="5.g-5_fr_13z8vk7xwm68b-fill" stroke="none" fill="#fffbda"><g><path d="M 188 10L 44 10L 44 82L 188 82L 188 10ZM 215.5 46L 191.5 10L 188 10L 188 82L 191.5 82L 215.5 46ZM 34 46L 10 82L 44 82L 44 10L 10 10L 34 46Z"></path></g></g></g><g id="g-root-tx_neuralfl_zk1uivxwm3ut-fill" data-item-order="0" transform="translate(373, 87)"><g id="tx_neuralfl_zk1uivxwm3ut-fill" stroke="none" fill="#484848"><g><text style="font: bold 20px Roboto, sans-serif; white-space: pre;" font-weight="bold" font-size="20px" font-family="Roboto, sans-serif"><tspan x="13.03" y="34" dominant-baseline="ideographic">NeuralFlake Retrieval Process</tspan></text></g></g></g><g id="g-root-netw_8xravbxwm3uv-fill" data-item-order="0" transform="translate(99, 147)"></g><g id="g-root-serv_1414atjxwnimi-fill" data-item-order="0" transform="translate(293, 147)"></g><g id="g-root-bitb_zlasp3xwowsl-fill" data-item-order="0" transform="translate(487, 147)"></g><g id="g-root-spee_m9uabrxwqbrc-fill" data-item-order="0" transform="translate(681, 147)"></g><g id="g-root-sett_1q87tfrxwrsw3-fill" data-item-order="0" transform="translate(875, 147)"></g><g id="g-root-tx_querypro_m8lc5jxwm5fq-fill" data-item-order="0" transform="translate(69, 219)"><g id="tx_querypro_m8lc5jxwm5fq-fill" stroke="none" fill="#4e88e7"><g><text style="font: bold 20px Roboto, sans-serif; white-space: pre;" font-weight="bold" font-size="20px" font-family="Roboto, sans-serif"><tspan x="37.31" y="34" dominant-baseline="ideographic">Query </tspan><tspan x="13.55" y="58" dominant-baseline="ideographic">Processing</tspan></text></g></g></g><g id="g-root-tx_similari_1cw4tzbxwnkzl-fill" data-item-order="0" transform="translate(269, 219)"><g id="tx_similari_1cw4tzbxwnkzl-fill" stroke="none" fill="#1eabda"><g><text style="font: bold 20px Roboto, sans-serif; white-space: pre;" font-weight="bold" font-size="20px" font-family="Roboto, sans-serif"><tspan x="12.66" y="34" dominant-baseline="ideographic">Similarity </tspan><tspan x="24.21" y="58" dominant-baseline="ideographic">Search</tspan></text></g></g></g><g id="g-root-tx_contexta_1cw4tzbxwoydg-fill" data-item-order="0" transform="translate(463, 219)"><g id="tx_contexta_1cw4tzbxwoydg-fill" stroke="none" fill="#3cc583"><g><text style="font: bold 20px Roboto, sans-serif; white-space: pre;" font-weight="bold" font-size="20px" font-family="Roboto, sans-serif"><tspan x="22.95" y="34" dominant-baseline="ideographic">Context </tspan><tspan x="13.63" y="58" dominant-baseline="ideographic">Assembly</tspan></text></g></g></g><g id="g-root-tx_response_qp1bd3xwqe4v-fill" data-item-order="0" transform="translate(651, 219)"><g id="tx_response_qp1bd3xwqe4v-fill" stroke="none" fill="#92bd39"><g><text style="font: bold 20px Roboto, sans-serif; white-space: pre;" font-weight="bold" font-size="20px" font-family="Roboto, sans-serif"><tspan x="19.64" y="34" dominant-baseline="ideographic">Response </tspan><tspan x="14.64" y="58" dominant-baseline="ideographic">Generation</tspan></text></g></g></g><g id="g-root-tx_conversa_4ik9tzxwrria-fill" data-item-order="0" transform="translate(833, 219)"><g id="tx_conversa_4ik9tzxwrria-fill" stroke="none" fill="#e0cb15"><g><text style="font: bold 20px Roboto, sans-serif; white-space: pre;" font-weight="bold" font-size="20px" font-family="Roboto, sans-serif"><tspan x="13.88" y="34" dominant-baseline="ideographic">Conversation </tspan><tspan x="14.27" y="58" dominant-baseline="ideographic">Management</tspan></text></g></g></g><g id="g-root-tx_usersque_1uneuh3xwnimg-fill" data-item-order="0" transform="translate(51, 303)"><g id="tx_usersque_1uneuh3xwnimg-fill" stroke="none" fill="#484848"><g><text style="font: 15px Roboto, sans-serif; white-space: pre;" font-size="15px" font-family="Roboto, sans-serif"><tspan x="22.43" y="31" dominant-baseline="ideographic">User's question is </tspan><tspan x="23.13" y="49" dominant-baseline="ideographic">converted into an </tspan><tspan x="35.09" y="67" dominant-baseline="ideographic">embedding to </tspan><tspan x="13.01" y="85" dominant-baseline="ideographic">capture its semantic </tspan><tspan x="50.05" y="103" dominant-baseline="ideographic">meaning.</tspan></text></g></g></g><g id="g-root-tx_chromave_1q7lccnxwowsj-fill" data-item-order="0" transform="translate(245, 303)"><g id="tx_chromave_1q7lccnxwowsj-fill" stroke="none" fill="#484848"><g><text style="font: 15px Roboto, sans-serif; white-space: pre;" font-size="15px" font-family="Roboto, sans-serif"><tspan x="14.44" y="31" dominant-baseline="ideographic">ChromaVectorStore </tspan><tspan x="22.16" y="49" dominant-baseline="ideographic">calculates cosine </tspan><tspan x="14.44" y="67" dominant-baseline="ideographic">similarity to find the </tspan><tspan x="38.55" y="85" dominant-baseline="ideographic">most similar </tspan><tspan x="40.56" y="103" dominant-baseline="ideographic">documents.</tspan></text></g></g></g><g id="g-root-tx_retrieve_140htqfxwqcjy-fill" data-item-order="0" transform="translate(439, 303)"><g id="tx_retrieve_140htqfxwqcjy-fill" stroke="none" fill="#484848"><g><text style="font: 15px Roboto, sans-serif; white-space: pre;" font-size="15px" font-family="Roboto, sans-serif"><tspan x="13.64" y="31" dominant-baseline="ideographic">Retrieved document </tspan><tspan x="43.95" y="49" dominant-baseline="ideographic">chunks are </tspan><tspan x="26.17" y="67" dominant-baseline="ideographic">concatenated to </tspan><tspan x="36.03" y="85" dominant-baseline="ideographic">form relevant </tspan><tspan x="53.42" y="103" dominant-baseline="ideographic">context.</tspan></text></g></g></g><g id="g-root-tx_llmgener_m97t8nxwrsax-fill" data-item-order="0" transform="translate(627, 303)"><g id="tx_llmgener_m97t8nxwrsax-fill" stroke="none" fill="#484848"><g><text style="font: 15px Roboto, sans-serif; white-space: pre;" font-size="15px" font-family="Roboto, sans-serif"><tspan x="31.41" y="28" dominant-baseline="ideographic">LLM generates a </tspan><tspan x="23.66" y="46" dominant-baseline="ideographic">response using the </tspan><tspan x="17.08" y="64" dominant-baseline="ideographic">original question and </tspan><tspan x="59.98" y="82" dominant-baseline="ideographic">context.</tspan></text></g></g></g><g id="g-root-tx_boththeq_qs5osnxwt62s-fill" data-item-order="0" transform="translate(827, 303)"><g id="tx_boththeq_qs5osnxwt62s-fill" stroke="none" fill="#484848"><g><text style="font: 15px Roboto, sans-serif; white-space: pre;" font-size="15px" font-family="Roboto, sans-serif"><tspan x="23.23" y="28" dominant-baseline="ideographic">Both the question </tspan><tspan x="24.5" y="46" dominant-baseline="ideographic">and response are </tspan><tspan x="21.28" y="64" dominant-baseline="ideographic">stored to maintain </tspan><tspan x="12.81" y="82" dominant-baseline="ideographic">conversation history.</tspan></text></g></g></g><g id="g-root-1.g-1_fr_8vvvlzxwm4ub-stroke" data-item-order="-333304" transform="translate(39, 207)"><g id="1.g-1_fr_8vvvlzxwm4ub-stroke" fill="none" stroke-linecap="round" stroke-linejoin="round" stroke-miterlimit="4" stroke="#4e88e7" stroke-width="2"><g><path d="M 22 10L 166 10M 165.5 82L 169 82L 193 46L 169 10L 165.5 10M 166 82L 22 82M 22 10L 10 10L 10 82L 22 82"></path></g></g></g><g id="g-root-2.g-2_fr_1uljf7rxwm685-stroke" data-item-order="-333278" transform="translate(211, 207)"><g id="2.g-2_fr_1uljf7rxwm685-stroke" fill="none" stroke-linecap="round" stroke-linejoin="round" stroke-miterlimit="4" stroke="#1eabda" stroke-width="2"><g><path d="M 44 10L 188 10M 187.5 82L 191 82L 215 46L 191 10L 187.5 10M 188 82L 44 82M 44 10L 10 10L 34 46L 10 82L 44 82"></path></g></g></g><g id="g-root-3.g-3_fr_1hapdxjxwm4nb-stroke" data-item-order="-333252" transform="translate(405, 207)"><g id="3.g-3_fr_1hapdxjxwm4nb-stroke" fill="none" stroke-linecap="round" stroke-linejoin="round" stroke-miterlimit="4" stroke="#3cc583" stroke-width="2"><g><path d="M 44 10L 188 10M 187.5 82L 191 82L 215 46L 191 10L 187.5 10M 188 82L 44 82M 44 10L 10 10L 34 46L 10 82L 44 82"></path></g></g></g><g id="g-root-4.g-4_fr_1cuvvt3xwm5fl-stroke" data-item-order="-333226" transform="translate(599, 207)"><g id="4.g-4_fr_1cuvvt3xwm5fl-stroke" fill="none" stroke-linecap="round" stroke-linejoin="round" stroke-miterlimit="4" stroke="#92bd39" stroke-width="2"><g><path d="M 44 10L 188 10M 187.5 82L 191 82L 215 46L 191 10L 187.5 10M 188 82L 44 82M 44 10L 10 10L 34 46L 10 82L 44 82"></path></g></g></g><g id="g-root-5.g-5_fr_13z8vk7xwm68b-stroke" data-item-order="-333200" transform="translate(793, 207)"><g id="5.g-5_fr_13z8vk7xwm68b-stroke" fill="none" stroke-linecap="round" stroke-linejoin="round" stroke-miterlimit="4" stroke="#e0cb15" stroke-width="2"><g><path d="M 44 10L 188 10M 187.5 82L 191 82L 215 46L 191 10L 187.5 10M 188 82L 44 82M 44 10L 10 10L 34 46L 10 82L 44 82"></path></g></g></g><g id="g-root-tx_neuralfl_zk1uivxwm3ut-stroke" data-item-order="0" transform="translate(373, 87)"></g><g id="g-root-netw_8xravbxwm3uv-stroke" data-item-order="0" transform="translate(99, 147)"><g id="netw_8xravbxwm3uv-stroke" fill="none" stroke-linecap="round" stroke-linejoin="round" stroke-miterlimit="4" stroke="#4e88e7" stroke-width="2"><g><path d="M 44.021999 24.042L 50.236 17.868M 49.021999 15.002C 49.021999 17.21114 50.812862 19.001999 53.021999 19.001999C 55.23114 19.001999 57.021999 17.21114 57.021999 15.002C 57.021999 12.792861 55.23114 11.002 53.021999 11.002C 50.812862 11.002 49.021999 12.792861 49.021999 15.002ZM 45.945999 45.959999L 50.174 50.216M 49.040001 53.001999C 49.040001 55.21114 50.83086 57.001999 53.040001 57.001999C 55.249138 57.001999 57.040001 55.21114 57.040001 53.001999C 57.040001 50.792862 55.249138 49.001999 53.040001 49.001999C 50.83086 49.001999 49.040001 50.792862 49.040001 53.001999ZM 24.021999 24.042L 17.806 17.868M 11.022 15.002C 11.022 17.21114 12.81286 19.001999 15.021999 19.001999C 17.23114 19.001999 19.021999 17.21114 19.021999 15.002C 19.021999 12.792861 17.23114 11.002 15.021999 11.002C 12.81286 11.002 11.022 12.792861 11.022 15.002ZM 22.098 45.959999L 17.868 50.216M 11 53.001999C 11 55.21114 12.790861 57.001999 15 57.001999C 17.209139 57.001999 19 55.21114 19 53.001999C 19 50.792862 17.209139 49.001999 15 49.001999C 12.790861 49.001999 11 50.792862 11 53.001999ZM 43.021999 33.001999L 49.021999 33.001999M 49.021999 33.001999C 49.021999 35.21114 50.812862 37.001999 53.021999 37.001999C 55.23114 37.001999 57.021999 35.21114 57.021999 33.001999C 57.021999 30.792862 55.23114 29.002001 53.021999 29.002001C 50.812862 29.002001 49.021999 30.792862 49.021999 33.001999ZM 25.021999 33.001999L 19.021999 33.001999M 11.022 33.001999C 11.022 35.21114 12.81286 37.001999 15.021999 37.001999C 17.23114 37.001999 19.021999 35.21114 19.021999 33.001999C 19.021999 30.792862 17.23114 29.002001 15.021999 29.002001C 12.81286 29.002001 11.022 30.792862 11.022 33.001999ZM 34.040001 44C 34.316143 44 34.540001 44.223858 34.540001 44.5C 34.540001 44.776142 34.316143 45 34.040001 45C 33.763855 45 33.540001 44.776142 33.540001 44.5C 33.539467 44.367229 33.591972 44.239738 33.685856 44.145855C 33.779739 44.051971 33.907227 43.999466 34.040001 44M 28.040001 30C 28.040455 27.003443 30.251694 24.466644 33.220146 24.057186C 36.188599 23.647732 39.004028 25.491169 39.815701 28.375706C 40.627373 31.260242 39.186394 34.301376 36.440002 35.5C 34.981647 36.136475 34.03923 37.576805 34.040001 39.167999L 34.040001 40"></path></g></g></g><g id="g-root-serv_1414atjxwnimi-stroke" data-item-order="0" transform="translate(293, 147)"><g id="serv_1414atjxwnimi-stroke" fill="none" stroke-linecap="round" stroke-linejoin="round" stroke-miterlimit="4" stroke="#1eabda" stroke-width="2"><g><path d="M 33.900002 29.300039C 38.318199 29.300039 41.900002 27.50918 41.900002 25.300041C 41.900002 23.0909 38.318199 21.300041 33.900002 21.300041C 29.481621 21.300041 25.8999 23.0909 25.8999 25.300041C 25.8999 27.50918 29.481621 29.300039 33.900002 29.300039ZM 25.8999 25.300041L 25.8999 32.099998C 25.8999 34.299999 29.499901 36.099998 33.900002 36.099998C 38.299999 36.099998 41.900002 34.299999 41.900002 32.099998L 41.900002 25.300041M 25.8999 32.299999L 25.8999 39.099998C 25.8999 41.299999 29.499901 43.099998 33.900002 43.099998C 38.299999 43.099998 41.900002 41.299999 41.900002 39.099998L 41.900002 32.299999M 11.5 17.5L 11.5 11.5L 17.5 11.5M 10 10M 11.5 11.5L 18.5 18.5M 56.5 17.5L 56.5 11.5L 50.5 11.5M 10 10M 56.5 11.5L 49.5 18.5M 11.5 50.5L 11.5 56.5L 17.5 56.5M 10 10M 11.5 56.5L 18.5 49.5M 56.5 50.5L 56.5 56.5L 50.5 56.5M 10 10M 56.5 56.5L 49.5 49.5M 45.900002 43.700001C 50.700001 41.5 53.900002 38.099998 53.900002 34.099998C 53.900002 30.9 51.700001 27.89996 48.099998 25.699959M 20.09992 25.5C 16.299919 27.700001 13.8999 30.700001 13.8999 34.099998C 13.8999 38.099998 17.099899 41.5 21.8999 43.700001"></path></g></g></g><g id="g-root-bitb_zlasp3xwowsl-stroke" data-item-order="0" transform="translate(487, 147)"><g id="bitb_zlasp3xwowsl-stroke" fill="none" stroke-linecap="round" stroke-linejoin="round" stroke-miterlimit="4" stroke="#3cc583" stroke-width="2"><g><path d="M 52 56L 16 56L 11 12L 57 12L 52 56ZM 42 43L 26 43L 24 25L 44 25L 42 43ZM 44 25L 55.521999 25"></path></g></g></g><g id="g-root-spee_m9uabrxwqbrc-stroke" data-item-order="0" transform="translate(681, 147)"><g id="spee_m9uabrxwqbrc-stroke" fill="none" stroke-linecap="round" stroke-linejoin="round" stroke-miterlimit="4" stroke="#92bd39" stroke-width="2"><g><path d="M 26.83 23L 26.83 13.308001C 26.83 12.033327 27.863327 11 29.138 11L 54.521999 11C 55.796673 11 56.830002 12.033327 56.830002 13.308001L 56.830002 30.691999C 56.830002 31.966673 55.796673 33 54.521999 33L 43.560001 33L 34.905998 39L 34.905998 33L 31.138 33M 32.905998 17L 50.751999 17M 32.905998 22L 50.751999 22M 32.905998 27L 44.138 27M 34.742001 54.858002C 34.740898 56.040539 33.782539 56.998898 32.599998 57L 13.314 57C 12.130682 57 11.171103 56.041317 11.17 54.858002L 11.17 49.5C 11.17 42.990772 16.446772 37.714001 22.956001 37.714001C 29.465229 37.714001 34.742001 42.990772 34.742001 49.5ZM 18.456001 45C 18.456001 45.276142 18.679857 45.5 18.956001 45.5C 19.232143 45.5 19.456001 45.276142 19.456001 45C 19.456001 44.723858 19.232143 44.5 18.956001 44.5C 18.679857 44.5 18.456001 44.723858 18.456001 45M 26.455999 44.987999C 26.455999 45.264141 26.679857 45.487999 26.955999 45.487999C 27.232141 45.487999 27.455999 45.264141 27.455999 44.987999C 27.455999 44.711857 27.232141 44.487999 26.955999 44.487999C 26.679857 44.487999 26.455999 44.711857 26.455999 44.987999M 22.956001 37.714001L 22.956001 33.428001M 19.742001 30.214001C 19.742001 31.989044 21.180958 33.428001 22.956001 33.428001C 24.731045 33.428001 26.17 31.989044 26.17 30.214001C 26.17 28.438957 24.731045 27 22.956001 27C 21.180958 27 19.742001 28.438957 19.742001 30.214001M 11.17 51.630001L 34.742001 51.630001"></path></g></g></g><g id="g-root-sett_1q87tfrxwrsw3-stroke" data-item-order="0" transform="translate(875, 147)"><g id="sett_1q87tfrxwrsw3-stroke" fill="none" stroke-linecap="round" stroke-linejoin="round" stroke-miterlimit="4" stroke="#e0cb15" stroke-width="2"><g><path d="M 42.625999 44.063999C 42.626003 45.651268 43.912735 46.938004 45.5 46.938004C 47.087269 46.938004 48.374001 45.651268 48.374001 44.064003C 48.374001 42.476734 47.087269 41.190002 45.5 41.190002C 43.912735 41.190002 42.626003 42.476734 42.626003 44.064003ZM 47.942001 32.942001L 48.790001 35.725998C 49.078423 36.685448 50.061653 37.256668 51.038002 37.031998L 53.862 36.377998C 54.9599 36.1287 56.091988 36.624779 56.652889 37.60096C 57.213787 38.577141 57.072266 39.805016 56.303997 40.627998L 54.327999 42.757999C 53.646465 43.495296 53.646465 44.632706 54.328003 45.370003L 56.304001 47.498001C 57.071003 48.321571 57.211845 49.548817 56.65136 50.524734C 56.09087 51.500656 54.959873 51.997459 53.862 51.75L 51.037998 51.096001C 50.065556 50.877083 49.089058 51.446053 48.799999 52.400002L 47.952 55.183998C 47.627914 56.261845 46.635513 56.999741 45.509998 56.999741C 44.384487 56.999741 43.392086 56.261845 43.068001 55.183998L 42.209999 52.400002C 41.921577 51.440552 40.938347 50.869335 39.961998 51.094002L 37.138 51.748001C 36.040127 51.995461 34.90913 51.498657 34.34864 50.522736C 33.788155 49.546818 33.928997 48.319572 34.695999 47.495998L 36.672001 45.368C 37.353539 44.630707 37.353539 43.493298 36.672001 42.756001L 34.695999 40.625999C 33.927731 39.803017 33.786209 38.575138 34.347111 37.598961C 34.908012 36.62278 36.040096 36.126701 37.138 36.375999L 39.961998 37.029999C 40.938347 37.254669 41.921577 36.683449 42.209999 35.723999L 43.057999 32.940002C 43.382526 31.862288 44.375229 31.124798 45.500744 31.125257C 46.626255 31.125719 47.618355 31.864023 47.942001 32.942001ZM 52.661999 30.954C 52.879848 29.984232 52.993164 28.993912 53 28C 53 18.612 43.599998 11 32 11C 20.4 11 11 18.612 11 28C 11.105418 32.681793 13.324568 37.064209 17.035999 39.919998L 13 49L 24.274 43.799999C 25.816757 44.285152 27.4028 44.620045 29.01 44.799999"></path></g></g></g><g id="g-root-tx_querypro_m8lc5jxwm5fq-stroke" data-item-order="0" transform="translate(69, 219)"></g><g id="g-root-tx_similari_1cw4tzbxwnkzl-stroke" data-item-order="0" transform="translate(269, 219)"></g><g id="g-root-tx_contexta_1cw4tzbxwoydg-stroke" data-item-order="0" transform="translate(463, 219)"></g><g id="g-root-tx_response_qp1bd3xwqe4v-stroke" data-item-order="0" transform="translate(651, 219)"></g><g id="g-root-tx_conversa_4ik9tzxwrria-stroke" data-item-order="0" transform="translate(833, 219)"></g><g id="g-root-tx_usersque_1uneuh3xwnimg-stroke" data-item-order="0" transform="translate(51, 303)"></g><g id="g-root-tx_chromave_1q7lccnxwowsj-stroke" data-item-order="0" transform="translate(245, 303)"></g><g id="g-root-tx_retrieve_140htqfxwqcjy-stroke" data-item-order="0" transform="translate(439, 303)"></g><g id="g-root-tx_llmgener_m97t8nxwrsax-stroke" data-item-order="0" transform="translate(627, 303)"></g><g id="g-root-tx_boththeq_qs5osnxwt62s-stroke" data-item-order="0" transform="translate(827, 303)"></g></g></g></svg>